<?xml version="1.0" standalone="no"?>
<!DOCTYPE svg PUBLIC "-//W3C//DTD SVG 20010904//EN"
 "http://www.w3.org/TR/2001/REC-SVG-20010904/DTD/svg10.dtd">
<svg version="1.0" xmlns="http://www.w3.org/2000/svg"
 width="302.000000pt" height="302.000000pt" viewBox="0 0 302.000000 302.000000"
 preserveAspectRatio="xMidYMid meet">
<metadata>
Created by potrace 1.11, written by Peter Selinger 2001-2013
</metadata>
<g transform="translate(0.000000,302.000000) scale(0.100000,-0.100000)"
fill="#000000" stroke="none">
<path d="M690 2295 c0 -13 13 -27 37 -40 58 -31 74 -96 79 -312 3 -138 1 -173
-9 -173 -7 0 -17 4 -22 9 -18 18 -150 69 -195 76 -163 25 -309 -29 -430 -159
-41 -43 -106 -178 -124 -254 -20 -88 -18 -251 4 -338 18 -68 69 -183 94 -210
139 -152 236 -197 421 -193 66 1 75 4 174 62 l104 60 30 -37 c16 -20 48 -47
71 -58 38 -20 57 -21 276 -22 204 -1 235 1 238 14 2 10 -10 20 -34 29 -28 10
-41 23 -58 60 -20 44 -21 62 -24 420 -3 258 0 381 8 400 23 56 127 81 187 46
15 -9 39 -33 53 -53 l25 -37 2 -338 c3 -314 2 -341 -17 -390 -12 -32 -34 -66
-60 -88 -22 -20 -40 -42 -40 -48 0 -6 18 -11 43 -11 78 -1 682 -2 695 -1 23 2
12 24 -29 59 -37 32 -51 54 -67 107 -3 11 -8 184 -11 385 -6 392 -7 385 44
412 72 39 146 22 192 -44 l28 -41 1 -341 c0 -201 -3 -357 -9 -381 -7 -26 -27
-56 -59 -88 -49 -49 -58 -67 -35 -67 28 -1 703 -1 720 -1 26 1 21 17 -18 53
-76 69 -80 81 -82 293 -8 580 -7 557 -30 606 -112 246 -489 276 -737 58 -41
-37 -50 -41 -60 -28 -92 124 -199 177 -360 177 -134 0 -245 -40 -331 -119 -23
-21 -45 -39 -49 -39 -4 0 -6 123 -6 273 0 149 0 286 0 302 l0 31 -315 -1
c-308 0 -315 0 -315 -20z m122 -1018 c2 -232 0 -426 -4 -431 -4 -5 -31 -11
-60 -14 -72 -5 -111 22 -154 108 -56 112 -74 197 -70 329 2 64 6 125 9 136 37
151 79 226 147 267 36 22 96 37 117 30 9 -3 13 -105 15 -425z"/>
</g>
</svg>
